<svg width="29" height="31" viewBox="0 0 29 31" fill="none" xmlns="http://www.w3.org/2000/svg">
    <path fill-rule="evenodd" clip-rule="evenodd" d="M12.9972 4H2C0.89543 4 0 4.89543 0 6C0 7.10457 0.89543 8 2 8H12.3713L10.3333 6.26621L12.9972 4ZM23.0267 8H27C28.1046 8 29 7.10457 29 6C29 4.89543 28.1046 4 27 4H22.4009L25.0647 6.26621L23.0267 8Z" fill="white"/>
    <path fill-rule="evenodd" clip-rule="evenodd" d="M5.39498 13.0145H2C0.89543 13.0145 0 13.91 0 15.0145C0 16.1191 0.89543 17.0145 2 17.0145H5.0941L2.89362 15.1425L5.39498 13.0145ZM15.4245 17.0145H19.3077H27C28.1046 17.0145 29 16.1191 29 15.0145C29 13.91 28.1046 13.0145 27 13.0145H19.3077H15.1236L17.625 15.1425L15.4245 17.0145Z" fill="white"/>
    <path fill-rule="evenodd" clip-rule="evenodd" d="M10.4551 22.3903H2C0.89543 22.3903 0 23.2857 0 24.3903C0 25.4949 0.89543 26.3903 2 26.3903H10.7468L8.25001 24.2662L10.4551 22.3903ZM20.4846 26.3903H27C28.1046 26.3903 29 25.4949 29 24.3903C29 23.2857 28.1046 22.3903 27 22.3903H20.7763L22.9814 24.2662L20.4846 26.3903Z" fill="white"/>
    <rect y="1.94391" width="6.67052" height="6.67052" transform="matrix(0.761665 0.647971 -0.761665 0.647971 19.1709 0.684314)" stroke="white" stroke-width="3"/>
    <rect y="1.94391" width="6.67052" height="6.67052" transform="matrix(0.761665 0.647971 -0.761665 0.647971 11.8153 9.5651)" stroke="white" stroke-width="3"/>
    <rect y="1.94391" width="6.67052" height="6.67052" transform="matrix(0.761665 0.647971 -0.761665 0.647971 16.9915 18.6646)" stroke="white" stroke-width="3"/>
</svg>
