<svg xmlns="http://www.w3.org/2000/svg" fill="white" width='170' height='250' viewBox='0 28 170 177'>
    <path d="M 165.015625 45.386719 L 107.125 45.386719 C 106.511719 43.511719 105.625 41.753906 104.460938 40.222656 L 95.3125 28.179688 C 92.929688 25.046875 89.765625 23.320312 86.398438 23.320312 C 83.035156 23.320312 79.871094 25.046875 77.488281 28.175781 L 68.339844 40.222656 C 67.175781 41.75 66.289062 43.511719 65.675781 45.386719 L 4.984375 45.386719 C 2.230469 45.386719 0 48.324219 0 51.949219 C 0 55.574219 2.230469 58.511719 4.984375 58.511719 L 65.675781 58.511719 C 66.289062 60.390625 67.175781 62.148438 68.339844 63.679688 L 77.492188 75.722656 C 79.871094 78.855469 83.035156 80.578125 86.402344 80.578125 C 89.765625 80.578125 92.929688 78.855469 95.3125 75.722656 L 104.460938 63.679688 C 105.625 62.148438 106.511719 60.390625 107.125 58.511719 L 165.015625 58.511719 C 167.769531 58.511719 170 55.574219 170 51.949219 C 170 48.324219 167.769531 45.386719 165.015625 45.386719 Z M 97.410156 54.398438 L 88.261719 66.441406 C 87.765625 67.097656 87.105469 67.457031 86.402344 67.457031 C 85.699219 67.457031 85.039062 67.097656 84.539062 66.441406 L 75.390625 54.398438 C 74.363281 53.046875 74.363281 50.851562 75.390625 49.5 L 84.539062 37.457031 C 85.039062 36.804688 85.699219 36.445312 86.402344 36.445312 C 87.105469 36.445312 87.765625 36.804688 88.261719 37.457031 L 97.410156 49.503906 C 98.4375 50.851562 98.4375 53.050781 97.410156 54.398438 Z M 97.410156 54.398438 "/>
    <path d="M 165.015625 106.195312 L 67.769531 106.195312 C 67.148438 104.289062 66.25 102.539062 65.101562 101.027344 L 55.949219 88.984375 C 53.570312 85.851562 50.40625 84.128906 47.039062 84.128906 C 43.675781 84.128906 40.511719 85.851562 38.128906 88.984375 L 28.980469 101.027344 C 27.816406 102.558594 26.929688 104.316406 26.316406 106.195312 L 4.984375 106.195312 C 2.230469 106.195312 0 109.132812 0 112.757812 C 0 116.378906 2.230469 119.320312 4.984375 119.320312 L 26.316406 119.320312 C 26.929688 121.195312 27.816406 122.953125 28.980469 124.484375 L 38.128906 136.527344 C 40.511719 139.660156 43.675781 141.386719 47.039062 141.386719 C 50.40625 141.386719 53.570312 139.660156 55.953125 136.527344 L 65.101562 124.484375 C 66.25 122.976562 67.148438 121.222656 67.769531 119.320312 L 165.015625 119.320312 C 167.769531 119.320312 170 116.382812 170 112.757812 C 170 109.132812 167.769531 106.195312 165.015625 106.195312 Z M 58.050781 115.207031 L 48.902344 127.25 C 48.402344 127.902344 47.742188 128.261719 47.039062 128.261719 C 46.335938 128.261719 45.675781 127.902344 45.179688 127.25 L 36.03125 115.207031 C 35.003906 113.855469 35.003906 111.660156 36.03125 110.308594 L 45.179688 98.265625 C 45.675781 97.609375 46.335938 97.25 47.039062 97.25 C 47.742188 97.25 48.402344 97.609375 48.902344 98.265625 L 58.050781 110.308594 C 58.546875 110.960938 58.820312 111.832031 58.820312 112.757812 C 58.820312 113.679688 58.546875 114.550781 58.050781 115.207031 Z M 58.050781 115.207031 "/>
    <path d="M 165.015625 165.253906 L 140.359375 165.253906 C 139.746094 163.375 138.859375 161.617188 137.695312 160.085938 L 128.546875 148.042969 C 126.167969 144.910156 123 143.183594 119.636719 143.183594 C 116.269531 143.183594 113.105469 144.910156 110.726562 148.042969 L 101.574219 160.085938 C 100.414062 161.617188 99.523438 163.375 98.910156 165.253906 L 4.984375 165.253906 C 2.230469 165.253906 0 168.191406 0 171.8125 C 0 175.4375 2.230469 178.375 4.984375 178.375 L 98.914062 178.375 C 99.527344 180.253906 100.414062 182.011719 101.574219 183.542969 L 110.726562 195.585938 C 113.105469 198.71875 116.269531 200.445312 119.636719 200.445312 C 123.003906 200.445312 126.167969 198.71875 128.546875 195.585938 L 137.695312 183.542969 C 138.859375 182.011719 139.746094 180.253906 140.359375 178.375 L 165.015625 178.375 C 167.769531 178.375 170 175.4375 170 171.8125 C 170 168.191406 167.769531 165.253906 165.015625 165.253906 Z M 130.644531 174.261719 L 121.496094 186.308594 C 121 186.960938 120.339844 187.320312 119.636719 187.320312 C 118.933594 187.320312 118.273438 186.960938 117.777344 186.308594 L 108.625 174.261719 C 107.601562 172.914062 107.601562 170.714844 108.625 169.367188 L 117.777344 157.324219 C 118.273438 156.667969 118.933594 156.308594 119.636719 156.308594 C 120.339844 156.308594 121 156.667969 121.496094 157.324219 L 130.644531 169.367188 C 131.671875 170.714844 131.671875 172.914062 130.644531 174.261719 Z M 130.644531 174.261719 "/>
</svg>
